<svg width="100" height="85" viewBox="0 0 100 85" fill="none" xmlns="http://www.w3.org/2000/svg">
<path d="M18.6295 30.2678L15.6466 29.7816L15.7796 28.964L14.9369 28.8314L14.5044 31.4612L15.3472 31.5938L15.4802 30.7761L18.4631 31.2623L18.6295 30.2678ZM19.0398 28.08L19.4833 26.5993C19.6829 25.9253 19.6275 25.1849 18.8402 24.9529C18.319 24.7982 17.8976 24.9197 17.6647 25.428H17.6537C17.5871 25.0855 17.3542 24.8976 17.0105 24.7982C16.3008 24.5882 15.9127 24.9529 15.7131 25.6159L15.3028 26.9971L19.0287 28.091L19.0398 28.08ZM18.5851 26.8977L17.7867 26.6656L17.82 26.5662C17.9087 26.2457 18.0085 25.7595 18.4631 25.8921C18.8734 26.0137 18.7182 26.4888 18.6295 26.7761L18.5962 26.8977H18.5851ZM17.0659 26.4557L16.3452 26.2457L16.3673 26.1794C16.445 25.9142 16.5558 25.6269 16.8885 25.7264C17.2101 25.8148 17.1657 26.1021 17.0992 26.3562L17.0659 26.4667V26.4557ZM20.3704 19.207C19.317 18.6877 18.1194 19.2291 17.6204 20.2346C17.1214 21.2291 17.3986 22.5109 18.4521 23.0413C19.572 23.6048 20.7696 23.196 21.3241 22.08C21.8785 20.9639 21.4904 19.7705 20.3704 19.207ZM18.9289 22.1021C18.4521 21.859 18.2303 21.207 18.5075 20.6656C18.7736 20.1241 19.439 19.9031 19.9158 20.1462C20.5146 20.4446 20.7364 21.1076 20.4592 21.638C20.193 22.1794 19.5277 22.4004 18.9289 22.1021ZM19.7273 16.5661L22.8987 18.7982L23.4753 17.9805L22.4219 17.2402L22.7546 16.7761C23.2647 16.0578 23.2203 15.428 22.4662 14.8976C21.7344 14.3893 21.0912 14.6324 20.6144 15.3175L19.7273 16.5772V16.5661ZM21.7676 16.765L20.9803 16.2125L21.0801 16.0689C21.3019 15.7484 21.5015 15.4832 21.9007 15.7595C22.2888 16.0357 22.0781 16.323 21.8674 16.6214L21.7676 16.765ZM25.1498 12.091C25.1165 12.2788 25.0167 12.555 24.8282 12.765C24.6175 12.986 24.3625 13.0523 24.1407 12.8534L23.2092 11.9584L22.5106 12.6876L23.553 13.6821C24.052 14.1573 24.7727 14.0468 25.2163 13.5937C25.5711 13.2291 25.6709 12.8755 25.7264 12.6434L26.8796 13.7374L27.5782 13.0081L24.7727 10.334L24.0741 11.0633L25.1609 12.091H25.1498ZM27.6559 8.86442L28.5873 8.11304L28.044 7.45005L26.3363 8.84232L28.798 11.8368L30.5057 10.4445L29.9624 9.78155L29.0309 10.5329L28.6095 10.0136L29.4855 9.29536L28.9422 8.63238L28.0662 9.35061L27.6559 8.85337V8.86442ZM32.8566 5.79259L32.2356 4.76496C31.914 4.80916 31.6257 4.9086 31.3485 5.07435C30.8827 5.35059 30.5279 5.83678 30.4059 6.36717C30.2839 6.88651 30.3727 7.4169 30.6499 7.86994C30.9493 8.36718 31.3707 8.68763 31.9362 8.79812C32.4685 8.90862 33.0118 8.82022 33.4776 8.53293C33.7437 8.36718 33.91 8.17934 34.154 7.92519L33.533 6.89756C33.4776 7.21801 33.278 7.5274 33.0007 7.69315C32.4574 8.01359 31.8697 7.85889 31.5592 7.3285C31.2487 6.80917 31.3596 6.19038 31.8918 5.88098C32.1912 5.70419 32.5461 5.65999 32.8677 5.79259H32.8566ZM36.1722 2.72075L35.6732 4.66551H35.6621L35.0411 3.19589L34.1096 3.58263L35.6177 7.15171L36.5492 6.76497L35.8949 5.218H35.906L37.7579 6.25668L38.9666 5.74839L36.6268 4.52186L37.3365 2.23456L36.1833 2.72075H36.1722ZM40.6965 4.47766L42.0382 4.12407L42.4485 4.70971L43.4909 4.44451L41.0957 1.07433L40.0311 1.35058L39.5654 5.47214L40.5967 5.20695L40.6854 4.48871L40.6965 4.47766ZM40.8739 2.36716L41.5836 3.45003L40.7741 3.65998L40.8628 2.36716H40.8739ZM45.2873 2.555L44.256 4.26772L45.509 4.13512L46.2964 2.555H46.3075L46.4738 4.03567L47.4718 3.92517L47.0393 0.0798533L45.5423 0.2456C44.7772 0.333998 44.2449 0.753889 44.3336 1.57157C44.3891 2.10196 44.7439 2.52185 45.2984 2.56605L45.2873 2.555ZM46.1189 0.941736L46.2298 1.90307L46.13 1.91412C45.7974 1.94726 45.4314 1.92517 45.376 1.51632C45.3316 1.09643 45.6865 0.996984 46.0191 0.963835L46.1189 0.952785V0.941736ZM53.0052 -0.00854492L51.7299 3.70418L52.7169 3.85888L53.3933 1.71522H53.4044L53.9255 4.05777L54.3247 4.12407L55.6 2.07986H55.6111L55.5334 4.32297L56.5314 4.48871L56.5758 0.577093L55.5889 0.411346L54.4356 2.32296L53.9921 0.157202L53.0163 0.00250485L53.0052 -0.00854492ZM59.1041 4.46661L60.4237 4.89755L60.4569 5.61579L61.4771 5.94728L61.2775 1.81467L60.2241 1.48317L57.6071 4.70971L58.6273 5.0412L59.093 4.47766L59.1041 4.46661ZM60.3904 2.776L60.4015 4.06882L59.6031 3.81468L60.3793 2.76495H60.3904V2.776ZM66.1899 5.31745L66.7333 4.23457C66.5226 3.99147 66.2897 3.79258 66.0014 3.64893C65.5135 3.40583 64.9147 3.37269 64.4046 3.54948C63.9056 3.72628 63.4953 4.09092 63.2624 4.56606C63.0074 5.0854 62.9519 5.61579 63.1626 6.14618C63.3622 6.65447 63.7282 7.06331 64.205 7.3064C64.4822 7.45005 64.7373 7.4832 65.081 7.53845L65.6244 6.45557C65.325 6.58817 64.959 6.57712 64.6596 6.43347C64.0941 6.15723 63.9167 5.57159 64.1939 5.0191C64.46 4.47766 65.0477 4.24562 65.6022 4.52186C65.9127 4.67656 66.1455 4.9528 66.201 5.29535L66.1899 5.31745ZM67.5206 9.12962L69.2061 6.62132L69.9047 7.08541L70.3815 6.37822L68.1526 4.89755L67.6758 5.60474L68.3744 6.06883L66.6889 8.57713L67.5317 9.14067L67.5206 9.12962ZM72.1114 8.76497L73.0207 9.54951L73.5751 8.90862L71.9118 7.47215L69.3724 10.4003L71.0469 11.8368L71.6013 11.1959L70.692 10.4114L71.1356 9.9031L72.0005 10.6434L72.555 10.0025L71.69 9.26221L72.1114 8.77602V8.76497ZM75.1498 10.334L72.2666 12.9307L72.9431 13.6711L73.8967 12.8092L74.2848 13.2291C74.8725 13.881 75.5046 13.9805 76.181 13.3617C76.8464 12.765 76.7466 12.0799 76.181 11.4611L75.1498 10.323V10.334ZM74.5066 12.2678L75.2274 11.6158L75.3383 11.7374C75.6044 12.0247 75.8262 12.2788 75.4603 12.6103C75.1054 12.9307 74.8615 12.6545 74.6175 12.3893L74.5066 12.2678ZM78.8867 17.1076L79.8958 16.4335C79.8293 16.1131 79.7295 15.8258 79.541 15.5606C79.2416 15.1075 78.7315 14.7871 78.1992 14.6877C77.678 14.5882 77.1458 14.7098 76.7022 14.997C76.2254 15.3175 75.9149 15.7595 75.8262 16.323C75.7486 16.8534 75.8595 17.3948 76.1589 17.8479C76.3363 18.1131 76.5359 18.2678 76.802 18.4888L77.8111 17.8147C77.4784 17.7816 77.1679 17.5937 76.9794 17.3175C76.6357 16.7982 76.7687 16.2015 77.2677 15.8589C77.7668 15.5274 78.3988 15.6048 78.7426 16.1241C78.9311 16.4114 78.9976 16.765 78.8756 17.0965L78.8867 17.1076ZM82.1025 20.2678L80.1287 19.8589V19.8479L81.5703 19.1628L81.1378 18.2567L77.6337 19.9252L78.0662 20.8313L79.5853 20.1131V20.1241L78.6317 22.0137L79.1972 23.1849L80.3172 20.7871L82.6459 21.3838L82.1025 20.2567V20.2678ZM80.539 24.8645L80.9493 26.1905L80.3837 26.6325L80.7053 27.6601L83.9766 25.1186L83.6439 24.0689L79.4966 23.8037L79.8182 24.8203L80.539 24.8755V24.8645ZM82.6681 24.9418L81.6146 25.7043L81.3596 24.9087L82.6681 24.9418V24.9529V24.9418ZM82.6791 29.3507L80.916 28.4004L81.1156 29.638L82.7457 30.3452V30.3562L81.2709 30.5883L81.4261 31.5828L85.2629 30.975L85.0189 29.4943C84.8969 28.743 84.4423 28.2236 83.6217 28.3562C83.0894 28.4446 82.6791 28.8093 82.6791 29.3618V29.3507ZM84.3314 30.091L83.3778 30.2457L83.3667 30.1463C83.3112 29.8258 83.3223 29.4501 83.7326 29.3839C84.154 29.3176 84.2649 29.6711 84.3203 30.0026L84.3314 30.1021V30.091Z" fill="#007E84"/>
<path d="M48.9912 32.5441L48.969 23.2844L43.5576 26.4999L48.9912 32.5441Z" fill="#007E84"/>
<path d="M43.3579 25.0965L48.8802 22.0468L49.1907 16.6545L41.9829 15.3838L40.874 20.4556L43.3579 25.0965Z" fill="#007E84"/>
<path d="M42.7593 13.6932L49.4459 5.54956L55.0126 13.428L49.5679 15.7927L42.7593 13.6932Z" fill="#007E84"/>
<path d="M50.1885 16.6655L55.4114 14.2456L57.6181 17.7705L58.0284 19.3506L50.1885 20.6876V16.6655Z" fill="#007E84"/>
<path d="M50.1888 21.638L50.1777 24.6656L54.9903 26.6325L57.4521 23.5496L57.6295 20.7429L50.1888 21.638Z" fill="#007E84"/>
<path d="M50.2219 25.5386L54.2139 27.2071L50.1221 32.2679L50.2219 25.5386Z" fill="#007E84"/>
<path d="M50.6768 32.953L65.5249 32.9199L67.6761 26.953L66.8444 26.3011L61.4996 25.2734L50.6768 32.953Z" fill="#007E84"/>
<path d="M66.4116 33.2072L68.707 27.5718L77.0237 33.3729L68.7625 39.1409L66.4116 33.2072Z" fill="#007E84"/>
<path d="M67.5318 40.4998L65.2253 34.1241L50.3218 34.0688L57.5074 39.5937L61.1778 40.9197L67.5318 40.4998Z" fill="#007E84"/>
<path d="M34.5975 32.522L33.3999 26.2236L39.521 26.9419L34.5975 32.522Z" fill="#007E84"/>
<path d="M35.6953 32.9199L41.1732 27.8591L47.9708 32.931L35.6953 32.9199Z" fill="#007E84"/>
<path d="M24.2183 34.113L48.503 34.1351L42.77 38.1131L34.8747 40.8755L30.3172 39.0633L24.2183 34.113Z" fill="#007E84"/>
<path d="M23.8857 32.9308L29.1197 27.9142L32.0028 26.1904L33.8103 32.9418L23.8857 32.9308Z" fill="#007E84"/>
<path d="M0 84.8316L10.7008 64.942L12.6746 73.1188L19.5276 65.0193L27.5782 84.9752L21.2686 84.9973L17.3542 76.3012L14.0829 84.8316L10.2462 77.8813L6.45376 84.8979L0 84.8426V84.8316ZM42.0936 74.8647L38.9554 65.1409L31.3706 65.163L26.558 71.4614L29.308 84.931L36.9483 84.9089L42.0936 74.8647ZM37.8576 74.3011L33.0561 78.7874L29.4966 71.7155L33.2557 67.2403L37.8576 74.3011ZM73.6305 84.931L62.4972 64.7983L54.369 84.931H58.2723L59.7583 80.9752H65.3249L67.831 84.931H73.6305ZM63.5618 76.8094L61.1555 76.8978L62.2422 73.6492L63.5618 76.8205V76.8094ZM74.6285 72.5111L75.3826 84.8205L81.8252 84.8758L80.3837 70.931L74.6396 72.5221L74.6285 72.5111ZM96.7398 67.837L90.8627 64.9751L83.9321 71.6382L85.7507 84.9973L94.3779 84.9752L99.5121 82.0139L90.2306 80.4227L88.9554 72.4448L91.7276 70.5884L99.9889 76.0249L96.7398 67.8591V67.837ZM74.7061 71.2956L80.428 69.7376L81.0157 64.8646L67.8199 64.9309L74.7061 71.2956ZM56.0102 64.9751L45.3205 64.9862L42.8476 68.0912L43.4021 73.2956L49.124 75.5166L49.4012 78.6658L45.0543 79.0415L43.2579 76.7763L40.4524 84.9421L49.1572 84.9089L55.9769 78.2791L52.8277 71.6382L48.1814 72.0138L49.5897 68.1133L55.7219 71.1078L56.0102 64.9751Z" fill="#962A28"/>
<path d="M86.7156 59.0084L87.7025 61.6383H91.9163L86.1834 46.489H81.8698L76.0259 61.6383H80.2175L81.2709 59.0084H86.7156ZM85.6511 55.9918H82.3688L83.9988 51.1631H84.0432L85.6622 55.9918H85.6511Z" fill="#007E84"/>
<path d="M74.6288 46.478H70.6812V61.6383H74.6288V46.478Z" fill="#007E84"/>
<path d="M63.9278 55.4283C66.0902 55.0415 67.2545 53.2404 67.2545 51.152C67.2545 47.9144 64.9702 46.489 61.9651 46.489H56.0547V61.6383H60.0134V55.815H60.0578L63.7837 61.6383H68.7072L63.9278 55.4283ZM60.0134 49.4946H60.4015C61.6879 49.4946 63.1405 49.7376 63.1405 51.3841C63.1405 53.0305 61.6879 53.2736 60.4015 53.2736H60.0134V49.4946Z" fill="#007E84"/>
<path d="M54.247 49.8151V46.478H45.5977V61.6383H54.247V58.3013H49.5453V55.6825H54.0031V52.3565H49.5453V49.8151H54.247Z" fill="#007E84"/>
<path d="M38.0904 61.6383C40.8737 61.6383 43.6016 60.5885 43.6016 57.4172C43.6016 55.3067 42.6701 53.8371 40.4967 53.5609V53.5167C41.7276 52.8979 42.1711 51.7929 42.1711 50.4227C42.1711 47.5277 40.3526 46.489 37.6579 46.489H32.0137V61.6383H38.1015H38.0904ZM35.9502 55.373H36.3494C37.6358 55.373 39.5985 55.1962 39.5985 57.0194C39.5985 58.688 37.6247 58.6217 36.4492 58.6217H35.9502V55.362V55.373ZM35.9502 49.5056H36.2275C37.292 49.5056 38.5229 49.583 38.5229 50.9752C38.5229 52.257 37.4362 52.4448 36.3827 52.4448H35.9392V49.5056H35.9502Z" fill="#007E84"/>
<path d="M29.1195 46.478H25.1719V61.6383H29.1195V46.478Z" fill="#007E84"/>
<path d="M21.7122 46.92C20.3593 46.1576 18.4853 45.6714 16.955 45.6714C13.9056 45.6714 11.71 47.6824 11.71 50.7543C11.71 53.6935 13.34 54.3344 15.824 55.0305C16.6667 55.2736 18.2192 55.6493 18.2192 56.7543C18.2192 57.8151 17.2323 58.2792 16.3008 58.2792C14.9479 58.2792 13.1959 57.1742 12.1979 56.3123L10.6011 59.6383C12.1535 60.7212 14.5266 61.6162 16.4449 61.6162C17.9752 61.6162 19.572 61.1963 20.7585 60.1908C21.9672 59.1632 22.3332 57.6162 22.3332 56.1134C22.3332 53.6604 20.7031 52.5996 18.5851 51.9698L17.576 51.6714C16.8885 51.4504 15.824 51.1079 15.824 50.2239C15.824 49.3841 16.7887 48.9532 17.5206 48.9532C18.4853 48.9532 19.4168 49.351 20.1376 49.9587L21.7122 46.909V46.92Z" fill="#007E84"/>
</svg>
