<svg width="72" height="90" viewBox="0 0 72 90" fill="none" xmlns="http://www.w3.org/2000/svg">
<path d="M0.5 6C0.5 2.96243 2.96243 0.5 6 0.5H66C69.0376 0.5 71.5 2.96243 71.5 6V68.2053C71.5 70.3297 70.2766 72.2641 68.3572 73.1746L38.3572 87.4054C36.8654 88.113 35.1346 88.113 33.6428 87.4054L3.64279 73.1746C1.72342 72.2641 0.5 70.3297 0.5 68.2053V6Z" fill="white" stroke="#D6D5CC"/>
<g clip-path="url(#clip0)">
<path d="M19.7827 28.7007L18.2408 28.4472L18.3096 28.021L17.8739 27.9519L17.6504 29.3227L18.086 29.3918L18.1548 28.9656L19.6968 29.219L19.7827 28.7007ZM19.9948 27.5602L20.2241 26.7884C20.3273 26.437 20.2986 26.0511 19.8917 25.9301C19.6222 25.8495 19.4044 25.9129 19.284 26.1778H19.2783C19.2439 25.9993 19.1235 25.9013 18.9459 25.8495C18.579 25.7401 18.3784 25.9301 18.2752 26.2757L18.0631 26.9957L19.9891 27.566L19.9948 27.5602ZM19.7598 26.9439L19.3471 26.8229L19.3643 26.7711C19.4102 26.6041 19.4617 26.3506 19.6968 26.4197C19.9088 26.4831 19.8286 26.7308 19.7827 26.8805L19.7655 26.9439H19.7598ZM18.9745 26.7135L18.6019 26.6041L18.6134 26.5695C18.6535 26.4313 18.7108 26.2815 18.8828 26.3333C19.049 26.3794 19.0261 26.5292 18.9917 26.6617L18.9745 26.7193V26.7135ZM20.6827 22.935C20.1381 22.6643 19.5191 22.9465 19.2611 23.4707C19.0032 23.9891 19.1465 24.6572 19.691 24.9337C20.27 25.2274 20.889 25.0143 21.1756 24.4326C21.4623 23.8508 21.2616 23.2288 20.6827 22.935ZM19.9375 24.4441C19.691 24.3174 19.5764 23.9775 19.7197 23.6953C19.8573 23.4131 20.2012 23.2979 20.4477 23.4246C20.7572 23.5801 20.8718 23.9257 20.7285 24.2022C20.591 24.4844 20.247 24.5996 19.9375 24.4441ZM20.3502 21.5584L21.9896 22.7219L22.2877 22.2957L21.7431 21.9098L21.9151 21.6678C22.1788 21.2934 22.1558 20.9651 21.7661 20.6887C21.3877 20.4237 21.0553 20.5504 20.8088 20.9075L20.3502 21.5642V21.5584ZM21.4049 21.6621L20.998 21.3741L21.0495 21.2992C21.1642 21.1322 21.2674 20.9939 21.4737 21.1379C21.6743 21.2819 21.5654 21.4317 21.4565 21.5872L21.4049 21.6621ZM23.1532 19.2256C23.136 19.3236 23.0844 19.4676 22.987 19.577C22.8781 19.6922 22.7462 19.7268 22.6316 19.6231L22.1501 19.1565L21.789 19.5367L22.3278 20.0551C22.5858 20.3027 22.9583 20.2451 23.1876 20.009C23.3711 19.8189 23.4226 19.6346 23.4513 19.5136L24.0474 20.0839L24.4086 19.7037L22.9583 18.3098L22.5972 18.69L23.159 19.2256H23.1532ZM24.4487 17.5438L24.9302 17.1521L24.6493 16.8065L23.7666 17.5322L25.0391 19.0932L25.9218 18.3674L25.641 18.0218L25.1595 18.4135L24.9417 18.1428L25.3945 17.7684L25.1136 17.4228L24.6608 17.7972L24.4487 17.538V17.5438ZM27.1371 15.9425L26.8161 15.4068C26.6498 15.4299 26.5008 15.4817 26.3575 15.5681C26.1167 15.7121 25.9333 15.9656 25.8703 16.242C25.8072 16.5127 25.8531 16.7892 25.9964 17.0254C26.1511 17.2846 26.369 17.4516 26.6613 17.5092C26.9364 17.5668 27.2173 17.5207 27.4581 17.371C27.5956 17.2846 27.6816 17.1867 27.8077 17.0542L27.4867 16.5185C27.4581 16.6855 27.3549 16.8468 27.2116 16.9332C26.9307 17.1003 26.6269 17.0196 26.4664 16.7431C26.3059 16.4724 26.3632 16.1499 26.6384 15.9886C26.7931 15.8964 26.9766 15.8734 27.1428 15.9425H27.1371ZM28.851 14.3413L28.593 15.355H28.5873L28.2663 14.5889L27.7848 14.7905L28.5644 16.651L29.0459 16.4494L28.7077 15.643H28.7134L29.6707 16.1844L30.2955 15.9195L29.086 15.2801L29.4528 14.0878L28.8567 14.3413H28.851ZM31.1897 15.2571L31.8833 15.0728L32.0953 15.378L32.6342 15.2398L31.396 13.483L30.8457 13.627L30.605 15.7755L31.1381 15.6372L31.1839 15.2629L31.1897 15.2571ZM31.2814 14.157L31.6482 14.7214L31.2298 14.8309L31.2757 14.157H31.2814ZM33.5628 14.2549L33.0297 15.1477L33.6774 15.0785L34.0844 14.2549H34.0901L34.1761 15.0267L34.692 14.9691L34.4684 12.9647L33.6946 13.0511C33.2991 13.0971 33.0239 13.316 33.0698 13.7422C33.0985 14.0187 33.2819 14.2376 33.5685 14.2606L33.5628 14.2549ZM33.9927 13.4139L34.05 13.915L33.9984 13.9208C33.8264 13.9381 33.6373 13.9266 33.6086 13.7134C33.5857 13.4946 33.7691 13.4427 33.9411 13.4254L33.9927 13.4197V13.4139ZM37.5523 12.9186L36.8931 14.8539L37.4033 14.9345L37.753 13.8171H37.7587L38.0281 15.0382L38.2344 15.0728L38.8936 14.0072H38.8994L38.8593 15.1765L39.3751 15.2629L39.3981 13.2239L38.8879 13.1375L38.2918 14.1339L38.0625 13.005L37.5581 12.9243L37.5523 12.9186ZM40.705 15.2513L41.3871 15.476L41.4043 15.8504L41.9317 16.0232L41.8285 13.869L41.2839 13.6962L39.9312 15.378L40.4585 15.5508L40.6993 15.2571L40.705 15.2513ZM41.3699 14.3701L41.3757 15.044L40.9629 14.9115L41.3642 14.3643H41.3699V14.3701ZM44.3678 15.6948L44.6487 15.1304C44.5398 15.0037 44.4194 14.9 44.2704 14.8251C44.0182 14.6984 43.7086 14.6811 43.445 14.7733C43.187 14.8654 42.9749 15.0555 42.8545 15.3032C42.7227 15.5739 42.694 15.8504 42.803 16.1268C42.9061 16.3918 43.0953 16.6049 43.3418 16.7316C43.4851 16.8065 43.6169 16.8238 43.7946 16.8526L44.0755 16.2881C43.9207 16.3572 43.7316 16.3515 43.5768 16.2766C43.2845 16.1326 43.1927 15.8273 43.336 15.5393C43.4736 15.2571 43.7774 15.1361 44.064 15.2801C44.2245 15.3608 44.3449 15.5048 44.3736 15.6833L44.3678 15.6948ZM45.0557 17.682L45.927 16.3745L46.2881 16.6164L46.5346 16.2478L45.3824 15.476L45.1359 15.8446L45.4971 16.0865L44.6258 17.394L45.0614 17.6878L45.0557 17.682ZM47.4288 17.4919L47.8988 17.9009L48.1854 17.5668L47.3256 16.818L46.0129 18.3444L46.8785 19.0932L47.1651 18.7591L46.6951 18.3501L46.9244 18.0852L47.3715 18.4711L47.6581 18.137L47.211 17.7511L47.4288 17.4977V17.4919ZM48.9994 18.3098L47.509 19.6634L47.8587 20.0493L48.3517 19.6L48.5523 19.8189C48.8561 20.1587 49.1828 20.2106 49.5325 19.888C49.8764 19.577 49.8248 19.2199 49.5325 18.8973L48.9994 18.3041V18.3098ZM48.6669 19.3178L49.0395 18.978L49.0968 19.0413C49.2344 19.1911 49.349 19.3236 49.1599 19.4964C48.9765 19.6634 48.8503 19.5194 48.7242 19.3812L48.6669 19.3178ZM50.9311 21.8406L51.4527 21.4893C51.4183 21.3222 51.3667 21.1725 51.2693 21.0343C51.1145 20.7981 50.8509 20.6311 50.5757 20.5792C50.3063 20.5274 50.0312 20.5907 49.8019 20.7405C49.5554 20.9075 49.3949 21.1379 49.349 21.4317C49.3089 21.7082 49.3662 21.9904 49.521 22.2265C49.6127 22.3648 49.7159 22.4454 49.8535 22.5606L50.3751 22.2093C50.2031 22.192 50.0426 22.0941 49.9452 21.9501C49.7675 21.6794 49.8363 21.3683 50.0942 21.1898C50.3522 21.017 50.6789 21.0573 50.8566 21.328C50.954 21.4778 50.9884 21.6621 50.9254 21.8349L50.9311 21.8406ZM52.5934 23.488L51.5731 23.2748V23.2691L52.3183 22.912L52.0947 22.4397L50.2834 23.3094L50.5069 23.7817L51.2922 23.4073V23.4131L50.7993 24.398L51.0916 25.0086L51.6706 23.7587L52.8743 24.0697L52.5934 23.4822V23.488ZM51.7852 25.8841L51.9973 26.5753L51.7049 26.8056L51.8712 27.3413L53.5622 26.0165L53.3902 25.4694L51.2464 25.3311L51.4126 25.861L51.7852 25.8898V25.8841ZM52.8858 25.9244L52.3412 26.3218L52.2094 25.9071L52.8858 25.9244V25.9301V25.9244ZM52.8915 28.2226L51.9801 27.7272L52.0833 28.3723L52.9259 28.741V28.7467L52.1635 28.8677L52.2438 29.3861L54.2271 29.0693L54.101 28.2975C54.0379 27.9058 53.8029 27.6351 53.3787 27.7042C53.1036 27.7503 52.8915 27.9403 52.8915 28.2283V28.2226ZM53.7456 28.6085L53.2526 28.6891L53.2469 28.6373C53.2182 28.4703 53.224 28.2744 53.436 28.2399C53.6539 28.2053 53.7112 28.3896 53.7398 28.5624L53.7456 28.6143V28.6085Z" fill="#007E84"/>
<path d="M35.4777 29.8871L35.4662 25.0603L32.6689 26.7364L35.4777 29.8871Z" fill="#007E84"/>
<path d="M32.5662 26.0051L35.4208 24.4153L35.5813 21.6045L31.8554 20.9421L31.2822 23.5859L32.5662 26.0051Z" fill="#007E84"/>
<path d="M32.2568 20.0608L35.7133 15.8158L38.5908 19.9226L35.7764 21.1552L32.2568 20.0608Z" fill="#007E84"/>
<path d="M36.0967 21.6102L38.7965 20.3488L39.9372 22.1862L40.1493 23.0098L36.0967 23.7068V21.6102Z" fill="#007E84"/>
<path d="M36.0966 24.2021L36.0908 25.7804L38.5786 26.8056L39.8511 25.1986L39.9428 23.7356L36.0966 24.2021Z" fill="#007E84"/>
<path d="M36.1141 26.2354L38.1777 27.1051L36.0625 29.7431L36.1141 26.2354Z" fill="#007E84"/>
<path d="M36.3486 30.1003L44.024 30.083L45.136 26.9727L44.7061 26.6328L41.9432 26.0972L36.3486 30.1003Z" fill="#007E84"/>
<path d="M44.4834 30.2328L45.6699 27.2953L49.969 30.3192L45.6986 33.3259L44.4834 30.2328Z" fill="#007E84"/>
<path d="M45.0623 34.0343L43.87 30.7108L36.166 30.682L39.8804 33.5619L41.7778 34.2531L45.0623 34.0343Z" fill="#007E84"/>
<path d="M28.037 29.8757L27.418 26.5925L30.5821 26.9669L28.037 29.8757Z" fill="#007E84"/>
<path d="M28.6055 30.0831L31.4371 27.4451L34.9509 30.0889L28.6055 30.0831Z" fill="#007E84"/>
<path d="M22.6729 30.705L35.2262 30.7165L32.2627 32.79L28.1814 34.23L25.8255 33.2854L22.6729 30.705Z" fill="#007E84"/>
<path d="M22.5 30.0887L25.2056 27.4737L26.6959 26.5752L27.6303 30.0945L22.5 30.0887Z" fill="#007E84"/>
<path d="M10.1533 57.143L15.6848 46.7752L16.7051 51.0375L20.2476 46.8155L24.4091 57.2179L21.1475 57.2294L19.1241 52.6964L17.4331 57.143L15.4498 53.52L13.4894 57.1775L10.1533 57.1487V57.143ZM31.9125 51.9476L30.2903 46.8789L26.3695 46.8904L23.8818 50.1735L25.3033 57.1948L29.2528 57.1833L31.9125 51.9476ZM29.7228 51.6538L27.2408 53.9923L25.4008 50.306L27.344 47.9733L29.7228 51.6538ZM48.2146 57.1948L42.4596 46.7003L38.2579 57.1948H40.2756L41.0437 55.1328H43.9213L45.2167 57.1948H48.2146ZM43.0099 52.9613L41.766 53.0074L42.3277 51.314L43.0099 52.9671V52.9613ZM48.7305 50.7207L49.1203 57.1372L52.4507 57.166L51.7055 49.8971L48.7363 50.7265L48.7305 50.7207ZM60.1604 48.2843L57.1224 46.7925L53.5398 50.2657L54.4798 57.2294L58.9394 57.2179L61.5934 55.6742L56.7956 54.8448L56.1364 50.6862L57.5695 49.7185L61.8399 52.5524L60.1604 48.2958V48.2843ZM48.7706 50.0871L51.7284 49.275L52.0322 46.7349L45.211 46.7694L48.7706 50.0871ZM39.1063 46.7925L33.5805 46.7982L32.3023 48.4168L32.5889 51.1297L35.5466 52.2874L35.6899 53.929L33.4429 54.1248L32.5143 52.944L31.0641 57.2006L35.5638 57.1833L39.0891 53.7274L37.4612 50.2657L35.0594 50.4615L35.7874 48.4283L38.9573 49.9892L39.1063 46.7925Z" fill="#962A28"/>
<path d="M54.9779 43.6822L55.4881 45.053H57.6663L54.7028 37.1562H52.473L49.4521 45.053H51.6189L52.1634 43.6822H54.9779ZM54.4276 42.1097H52.7309L53.5736 39.5927H53.5965L54.4334 42.1097H54.4276Z" fill="#007E84"/>
<path d="M48.7301 37.1505H46.6895V45.0531H48.7301V37.1505Z" fill="#007E84"/>
<path d="M43.1987 41.816C44.3165 41.6144 44.9183 40.6755 44.9183 39.5869C44.9183 37.8993 43.7375 37.1562 42.1841 37.1562H39.1289V45.053H41.1753V42.0176H41.1982L43.1242 45.053H45.6693L43.1987 41.816ZM41.1753 38.7229H41.3759C42.0408 38.7229 42.7917 38.8497 42.7917 39.7079C42.7917 40.5661 42.0408 40.6928 41.3759 40.6928H41.1753V38.7229Z" fill="#007E84"/>
<path d="M38.1937 38.89V37.1505H33.7227V45.0531H38.1937V43.3136H35.7633V41.9485H38.0676V40.2148H35.7633V38.89H38.1937Z" fill="#007E84"/>
<path d="M29.8434 45.053C31.2821 45.053 32.6922 44.5059 32.6922 42.8528C32.6922 41.7526 32.2107 40.9866 31.0872 40.8426V40.8195C31.7235 40.497 31.9528 39.921 31.9528 39.2068C31.9528 37.6977 31.0127 37.1562 29.6198 37.1562H26.7021V45.053H29.8491H29.8434ZM28.7371 41.7872H28.9434C29.6083 41.7872 30.6229 41.695 30.6229 42.6454C30.6229 43.5152 29.6026 43.4806 28.995 43.4806H28.7371V41.7814V41.7872ZM28.7371 38.7287H28.8804C29.4306 38.7287 30.0669 38.769 30.0669 39.4948C30.0669 40.1629 29.5052 40.2608 28.9606 40.2608H28.7313V38.7287H28.7371Z" fill="#007E84"/>
<path d="M25.2057 37.1505H23.165V45.0531H25.2057V37.1505Z" fill="#007E84"/>
<path d="M21.3764 37.3808C20.6771 36.9834 19.7084 36.73 18.9173 36.73C17.341 36.73 16.206 37.7783 16.206 39.3795C16.206 40.9117 17.0486 41.2457 18.3326 41.6086C18.7683 41.7353 19.5708 41.9312 19.5708 42.5071C19.5708 43.0601 19.0606 43.302 18.5791 43.302C17.8798 43.302 16.9741 42.726 16.4582 42.2767L15.6328 44.0105C16.4353 44.5749 17.662 45.0415 18.6536 45.0415C19.4447 45.0415 20.2701 44.8226 20.8834 44.2985C21.5082 43.7628 21.6974 42.9564 21.6974 42.1731C21.6974 40.8944 20.8548 40.3414 19.7599 40.0131L19.2383 39.8576C18.8829 39.7424 18.3326 39.5638 18.3326 39.1031C18.3326 38.6653 18.8313 38.4407 19.2097 38.4407C19.7084 38.4407 20.1899 38.648 20.5624 38.9648L21.3764 37.3751V37.3808Z" fill="#007E84"/>
</g>
<defs>
<clipPath id="clip0">
<rect width="51.6923" height="44.3077" fill="white" transform="translate(10.1533 12.923)"/>
</clipPath>
</defs>
</svg>
