<svg width="19" height="13" viewBox="0 0 19 13" fill="none" xmlns="http://www.w3.org/2000/svg">
<path d="M6.104 12L3.448 7.44H1.688V12H0.232V0.848H3.832C4.67467 0.848 5.384 0.992 5.96 1.28C6.54667 1.568 6.984 1.95733 7.272 2.448C7.56 2.93867 7.704 3.49867 7.704 4.128C7.704 4.896 7.48 5.57333 7.032 6.16C6.59467 6.74667 5.93333 7.136 5.048 7.328L7.848 12H6.104ZM1.688 6.272H3.832C4.62133 6.272 5.21333 6.08 5.608 5.696C6.00267 5.30133 6.2 4.77867 6.2 4.128C6.2 3.46667 6.00267 2.95467 5.608 2.592C5.224 2.22933 4.632 2.048 3.832 2.048H1.688V6.272ZM11.3904 0.848V7.904C11.3904 8.896 11.6304 9.632 12.1104 10.112C12.601 10.592 13.2784 10.832 14.1424 10.832C14.9957 10.832 15.6624 10.592 16.1424 10.112C16.633 9.632 16.8784 8.896 16.8784 7.904V0.848H18.3344V7.888C18.3344 8.816 18.1477 9.6 17.7744 10.24C17.401 10.8693 16.8944 11.3387 16.2544 11.648C15.625 11.9573 14.9157 12.112 14.1264 12.112C13.337 12.112 12.6224 11.9573 11.9824 11.648C11.353 11.3387 10.8517 10.8693 10.4784 10.24C10.1157 9.6 9.93438 8.816 9.93438 7.888V0.848H11.3904Z" fill="black"/>
</svg>
