<svg width="20" height="20" viewBox="0 0 20 20" fill="none" xmlns="http://www.w3.org/2000/svg">
<path d="M17.5 10C17.5 5.85938 14.1406 2.5 10 2.5C5.85938 2.5 2.5 5.85938 2.5 10C2.5 14.1406 5.85938 17.5 10 17.5C14.1406 17.5 17.5 14.1406 17.5 10Z" stroke="white" stroke-width="1.5" stroke-miterlimit="10"/>
<path d="M9.77562 6.48634L9.99984 11.25L10.2237 6.48634C10.2251 6.45589 10.2202 6.42547 10.2094 6.39695C10.1987 6.36843 10.1822 6.34241 10.161 6.32047C10.1399 6.29854 10.1144 6.28115 10.0863 6.26937C10.0582 6.25759 10.028 6.25167 9.9975 6.25196V6.25196C9.96737 6.25225 9.93762 6.2586 9.91001 6.27064C9.88239 6.28267 9.85749 6.30015 9.83678 6.32203C9.81607 6.3439 9.79998 6.36973 9.78948 6.39796C9.77897 6.42619 9.77426 6.45625 9.77562 6.48634V6.48634Z" stroke="white" stroke-width="1.5" stroke-linecap="round" stroke-linejoin="round"/>
<path d="M10 14.3713C9.84548 14.3713 9.69444 14.3255 9.56596 14.2397C9.43749 14.1538 9.33735 14.0318 9.27822 13.8891C9.21909 13.7463 9.20362 13.5892 9.23376 13.4377C9.26391 13.2861 9.33831 13.1469 9.44757 13.0377C9.55683 12.9284 9.69604 12.854 9.84759 12.8238C9.99913 12.7937 10.1562 12.8092 10.299 12.8683C10.4417 12.9274 10.5637 13.0276 10.6496 13.156C10.7354 13.2845 10.7812 13.4356 10.7812 13.5901C10.7812 13.7973 10.6989 13.996 10.5524 14.1425C10.4059 14.289 10.2072 14.3713 10 14.3713Z" fill="white"/>
</svg>
